# xmcd CD database file
#
# Track frame offsets:
#	150
#	2199
#	24182
#	45595
#	67903
#	92701
#	106866
#	132846
#	152612
#	179890
#	198708
#	236063
#	260781
#
# Disc length: 3612 seconds
#
# Revision: 0
# Processed by: cddbd v1.5.2PL0 Copyright (c) Steve Scherf et al.
# Submitted via: CDex 1.70beta2
#
DISCID=ae0e1a0d
DTITLE=John Blues - Nobody's child
DYEAR=2007
DGENRE=Blues
TTITLE0=Radio Station
TTITLE1=Roll On John
TTITLE2=Coming From
TTITLE3=Going Down
TTITLE4=Take Me Home
TTITLE5=Only A Penny
TTITLE6=Middle Of Nowhere
TTITLE7=Fighting Angels
TTITLE8=End Of Days
TTITLE9=Mothers Sign
TTITLE10=Nobody's Child
TTITLE11=One Love
TTITLE12=See The Light
EXTD=YEAR: 2007
EXTT0=
EXTT1=
EXTT2=
EXTT3=
EXTT4=
EXTT5=
EXTT6=
EXTT7=
EXTT8=
EXTT9=
EXTT10=
EXTT11=
EXTT12=
PLAYORDER=
